<svg width="150" height="133" viewBox="0 0 150 133" fill="none" xmlns="http://www.w3.org/2000/svg">
<g clip-path="url(#clip0_408_509)">
<path d="M101.438 123.525C134.905 115.065 155.64 80.9624 147.752 47.3552C139.864 13.748 106.339 -6.63771 72.872 1.82251C39.4052 10.2827 18.6697 44.3851 26.5579 77.9923C34.4462 111.6 67.971 131.985 101.438 123.525Z" fill="#FF795F"/>
<path d="M60.9754 130.992C60.6196 130.988 60.2679 130.912 59.9405 130.767C59.613 130.623 59.3162 130.413 59.067 130.149C58.8178 129.886 58.6211 129.574 58.4881 129.231C58.355 128.889 58.2884 128.522 58.2918 128.153L58.3562 121.86C58.6401 97.7583 58.8207 81.6907 53.3631 75.9599C52.4339 75.0527 51.3346 74.3538 50.1337 73.9069C48.9328 73.46 47.6561 73.2746 46.3831 73.3622C45.6951 73.313 45.0508 72.9947 44.5803 72.4715C44.1097 71.9483 43.848 71.2594 43.848 70.5437C43.848 69.8281 44.1097 69.1391 44.5803 68.6159C45.0508 68.0928 45.6951 67.7744 46.3831 67.7252C48.3721 67.6316 50.3583 67.9637 52.2184 68.7008C54.0784 69.438 55.7724 70.5643 57.1951 72.0099C64.2267 79.468 64.0461 95.4419 63.7493 121.913L63.6848 128.193C63.6748 128.934 63.3857 129.642 62.8794 130.165C62.373 130.688 61.6897 130.985 60.9754 130.992Z" fill="white" stroke="#55565C" stroke-width="3" stroke-linecap="round" stroke-linejoin="round"/>
<path d="M13.2634 99.7801C20.6692 107.814 29.6362 108.403 37.0033 107.051C58.1627 103.194 48.1894 72.4651 46.3831 74.7681C47.2765 73.6081 47.913 72.2582 48.2475 70.8143C48.5819 69.3703 48.6062 67.8677 48.3184 66.413C56.279 54.2819 55.1952 29.7653 33.352 29.3636C6.33493 28.8682 -10.4249 74.0317 13.2634 99.7801Z" fill="white" stroke="#55565C" stroke-width="3" stroke-linecap="round" stroke-linejoin="round"/>
<path d="M8.36062 66.4799C8.36062 66.4799 5.01897 87.6491 18.7597 97.8252C32.5005 108.001 42.5254 100.276 42.5254 100.276C42.5254 100.276 16.1019 102.712 8.36062 66.4799Z" fill="#A7ADAF"/>
<path d="M75.0387 130.992C75.3945 130.988 75.7462 130.912 76.0736 130.767C76.4011 130.623 76.6978 130.413 76.9471 130.149C77.1963 129.886 77.393 129.574 77.526 129.231C77.659 128.889 77.7258 128.522 77.7224 128.153L77.6578 121.86C77.374 97.7583 77.1934 81.6906 82.6509 75.9598C83.5817 75.0509 84.6832 74.3511 85.8864 73.9042C87.0897 73.4572 88.3688 73.2727 89.6439 73.3622C90.3319 73.313 90.9762 72.9946 91.4467 72.4715C91.9173 71.9483 92.1789 71.2593 92.1789 70.5437C92.1789 69.828 91.9173 69.1391 91.4467 68.6159C90.9762 68.0927 90.3319 67.7744 89.6439 67.7251C87.657 67.6326 85.673 67.9653 83.8152 68.7024C81.9574 69.4395 80.2655 70.5653 78.8448 72.0099C71.8003 79.4679 71.9938 95.4419 72.2905 121.913L72.3551 128.193C72.3584 128.932 72.6418 129.64 73.144 130.163C73.6462 130.687 74.3268 130.985 75.0387 130.992Z" fill="white" stroke="#55565C" stroke-width="3" stroke-linecap="round" stroke-linejoin="round"/>
<path d="M122.764 99.7801C115.358 107.814 106.391 108.403 99.0238 107.051C77.8643 103.194 87.8376 72.4651 89.6439 74.7681C88.7505 73.6081 88.114 72.2582 87.7796 70.8143C87.4451 69.3703 87.4209 67.8677 87.7086 66.413C79.748 54.2819 80.8318 29.7653 102.662 29.3636C129.64 28.8682 146.413 74.0317 122.764 99.7801Z" fill="white"/>
<path d="M134.079 69.3452C134.333 80.6437 130.264 91.5867 122.764 99.78C115.358 107.814 106.391 108.403 99.0238 107.051C77.8643 103.194 87.8376 72.465 89.6439 74.7681C88.7505 73.608 88.114 72.2581 87.7796 70.8142C87.4451 69.3703 87.4209 67.8676 87.7086 66.4129C79.748 54.2818 80.8318 29.7652 102.662 29.3636C108.234 29.3034 113.672 31.1375 118.145 34.5855" stroke="#55565C" stroke-width="3" stroke-linecap="round" stroke-linejoin="round"/>
<path d="M125.163 41.709C128.79 46.7109 131.381 52.4364 132.776 58.5264" stroke="#55565C" stroke-width="3" stroke-linecap="round" stroke-linejoin="round"/>
<path d="M127.705 66.4799C127.705 66.4799 131.047 87.6491 117.306 97.8252C103.565 108.001 93.5145 100.276 93.5145 100.276C93.5145 100.276 119.899 102.712 127.705 66.4799Z" fill="#A7ADAF"/>
</g>
<defs>
<clipPath id="clip0_408_509">
<rect width="150" height="133" fill="white"/>
</clipPath>
</defs>
</svg>
