<svg width="150" height="133" viewBox="0 0 150 133" fill="none" xmlns="http://www.w3.org/2000/svg">
<g clip-path="url(#clip0_408_465)">
<path d="M101.401 123.601C134.891 115.135 155.641 81.0104 147.748 47.3817C139.854 13.7529 106.307 -6.64537 72.8172 1.82082C39.3274 10.287 18.5771 44.4117 26.4703 78.0404C34.3634 111.669 67.911 132.067 101.401 123.601Z" fill="#FF795F"/>
<path d="M58.6675 17.9281C58.6675 17.9281 50.4561 10.103 44.4654 18.732C44.4654 18.732 38.0099 29.9605 53.0771 50.0593C68.1442 70.158 43.7554 90.7123 24.4147 95.8978C4.66087 101.19 3.03405 117.752 1.94953 122.361C0.774626 127.346 10.7161 129.154 10.7161 129.154C10.7161 129.154 20.0636 110.597 32.2645 118.743C70.7522 144.028 105.702 128.391 111.448 90.6051C111.448 90.6051 120.666 48.036 64.1806 34.3286C64.1806 34.3286 57.8413 31.9168 57.9833 27.6291C58.1253 23.3413 58.6675 17.9281 58.6675 17.9281Z" fill="white"/>
<path d="M109.214 100.199C110.2 97.0676 110.943 93.8594 111.435 90.605C112.545 83.726 111.995 76.6685 109.834 70.0641" stroke="#55565C" stroke-width="2.85" stroke-linecap="round" stroke-linejoin="round"/>
<path d="M99.2985 52.5649C92.1587 45.1819 81.1198 38.469 64.1676 34.3688C64.1676 34.3688 57.8284 31.957 57.9704 27.6692C58.1124 23.3815 58.6675 17.8611 58.6675 17.8611C58.6675 17.8611 50.4561 10.036 44.4654 18.665C44.4654 18.665 38.0099 29.8935 53.0771 49.9922C68.1442 70.091 43.7554 90.6453 24.4147 95.8307C4.66087 101.123 3.03405 117.685 1.94953 122.294C0.774626 127.279 10.7161 129.087 10.7161 129.087C10.7161 129.087 20.0636 110.53 32.2645 118.676C61.7274 138.025 89.073 133.415 102.927 113.223" stroke="#55565C" stroke-width="2.85" stroke-linecap="round" stroke-linejoin="round"/>
<path d="M33.6719 113.518C33.6719 113.518 68.1055 138.534 90.4803 118.877C90.4803 118.877 60.785 123.795 33.6719 113.518Z" fill="#D8D8D8"/>
</g>
<defs>
<clipPath id="clip0_408_465">
<rect width="150" height="133" fill="white"/>
</clipPath>
</defs>
</svg>
