<svg width="150" height="133" viewBox="0 0 150 133" fill="none" xmlns="http://www.w3.org/2000/svg">
<g clip-path="url(#clip0_408_297)">
<path d="M101.03 123.535C134.54 115.089 155.293 81.0041 147.384 47.4047C139.474 13.8053 105.897 -6.58523 72.3876 1.8611C38.8777 10.3074 18.1245 44.3922 26.0341 77.9916C33.9436 111.591 67.5206 131.982 101.03 123.535Z" fill="#D8D8D8"/>
<path d="M100.73 70.4213C96.6488 79.0681 90.3653 100.156 67.6283 111.752C45.7592 122.919 49.2831 116.712 28.4764 128.844C28.4764 128.844 15.8188 140.655 6.07616 110.076C6.07616 110.076 2.94092 102.461 1.93039 82.7815C0.880982 62.3911 9.08186 43.2609 32.8813 38.4482C56.6808 33.6354 94.7184 37.3086 113.051 25.431C113.051 25.431 131.085 13.6741 135.684 18.4332C135.684 18.4332 137.265 28.3937 121.122 45.808C103.386 64.9114 103.308 64.9785 100.73 70.4213Z" fill="white"/>
<path d="M72.8882 34.7482C88.435 33.5952 103.489 31.6514 113.051 25.364C113.051 25.364 131.085 13.607 135.684 18.3661C135.684 18.3661 137.265 28.3267 121.122 45.741C103.386 64.8578 103.308 64.9248 100.73 70.3676C96.6488 79.0145 90.3653 100.102 67.6283 111.698C45.7592 122.865 49.2831 116.658 28.4764 128.791C28.4764 128.791 15.8188 140.601 6.07616 110.022C6.07616 110.022 2.94092 102.408 1.93039 82.7279C0.880982 62.3375 9.08186 43.2073 32.8813 38.3946C34.9024 37.9924 37.0142 37.6438 39.2166 37.3355" stroke="#55565C" stroke-width="2.85" stroke-linecap="round" stroke-linejoin="round"/>
<path d="M47.8062 36.4373C52.6775 36.0217 57.795 35.7133 62.9513 35.3916" stroke="#55565C" stroke-width="2.85" stroke-linecap="round" stroke-linejoin="round"/>
<path d="M93.6172 85.5833C93.6172 85.5833 104.655 63.1552 90.0674 43.1536" stroke="#55565C" stroke-width="2.85" stroke-linecap="round" stroke-linejoin="round"/>
<path d="M34.0214 44.9098C34.0214 44.9098 1.20484 41.3438 11.1418 106.135C11.1418 106.135 14.588 54.294 34.0214 44.9098Z" fill="#D8D8D8"/>
</g>
<defs>
<clipPath id="clip0_408_297">
<rect width="150" height="133" fill="white"/>
</clipPath>
</defs>
</svg>
