<svg width="110" height="135" viewBox="0 0 110 135" fill="none" xmlns="http://www.w3.org/2000/svg">
<g clip-path="url(#clip0_400_155)">
<path d="M85.7759 135H50.7085C46.9276 135 44 133.931 41.9984 131.83C40.3422 130.041 39.4373 127.685 39.4702 125.25V109.744C39.4702 109.144 39.7093 108.568 40.1349 108.143C40.5605 107.719 41.1378 107.48 41.7397 107.48C42.3416 107.48 42.9188 107.719 43.3444 108.143C43.77 108.568 44.0091 109.144 44.0091 109.744V125.295C44.0114 125.334 44.0114 125.374 44.0091 125.413C44.0304 126.649 44.5014 127.835 45.3344 128.751C46.4419 129.892 48.2529 130.471 50.713 130.471H85.7714C86.2253 130.471 87.7686 130.327 88.5492 129.566C88.7546 129.349 88.9111 129.091 89.0082 128.809C89.1053 128.527 89.1407 128.228 89.1121 127.931V93.9669C89.1121 93.3664 89.3512 92.7905 89.7768 92.3659C90.2024 91.9413 90.7796 91.7026 91.3815 91.7026C91.9834 91.7026 92.5606 91.9413 92.9862 92.3659C93.4118 92.7905 93.6509 93.3664 93.6509 93.9669V127.931C93.6784 128.836 93.5198 129.736 93.1849 130.577C92.85 131.419 92.3459 132.182 91.7037 132.822C89.5795 134.869 86.5339 135 85.7759 135Z" fill="#3A3A3A"/>
<path d="M91.377 96.2404C87.6964 96.2404 84.0984 95.1515 81.0381 93.1113C77.9778 91.0712 75.5925 88.1713 74.184 84.7787C72.7755 81.386 72.407 77.6528 73.125 74.0512C73.8431 70.4495 75.6155 67.1412 78.2181 64.5446C80.8206 61.9479 84.1365 60.1796 87.7464 59.4632C91.3563 58.7468 95.098 59.1144 98.4984 60.5197C101.899 61.925 104.805 64.3049 106.85 67.3582C108.895 70.4115 109.986 74.0012 109.986 77.6734C109.979 82.5955 108.016 87.3139 104.528 90.7943C101.039 94.2748 96.3103 96.2332 91.377 96.2404ZM91.377 63.635C88.5941 63.635 85.8737 64.4583 83.5598 66.0009C81.2459 67.5434 79.4424 69.7359 78.3775 72.3011C77.3125 74.8663 77.0338 77.689 77.5767 80.4122C78.1196 83.1354 79.4598 85.6368 81.4276 87.6002C83.3954 89.5635 85.9025 90.9004 88.6319 91.4421C91.3613 91.9838 94.1905 91.7058 96.7615 90.6433C99.3326 89.5808 101.53 87.7814 103.076 85.4728C104.622 83.1641 105.448 80.45 105.448 77.6734C105.44 73.9524 103.956 70.3858 101.318 67.7547C98.6812 65.1235 95.1065 63.6422 91.377 63.635Z" fill="#3A3A3A"/>
<path d="M91.3769 89.9728C88.9374 89.9692 86.5536 89.2441 84.527 87.889C82.5005 86.534 80.922 84.6099 79.9914 82.3599C79.0607 80.11 78.8195 77.6352 79.2983 75.2485C79.7771 72.8618 80.9544 70.6705 82.6813 68.9512C84.4083 67.232 86.6074 66.0622 89.0006 65.5898C91.3937 65.1173 93.8736 65.3635 96.1266 66.297C98.3796 67.2306 100.305 68.8096 101.658 70.8345C103.012 72.8594 103.734 75.2393 103.732 77.6733C103.726 80.9382 102.421 84.0673 100.105 86.3734C97.7884 88.6795 94.6493 89.974 91.3769 89.9728ZM91.3769 69.8843C89.8358 69.8878 88.3303 70.3469 87.0506 71.2036C85.7708 72.0602 84.7742 73.276 84.1865 74.6974C83.5988 76.1188 83.4464 77.6821 83.7486 79.1899C84.0508 80.6976 84.794 82.0821 85.8844 83.1687C86.9747 84.2553 88.3634 84.9952 89.8749 85.295C91.3865 85.5947 92.9531 85.4409 94.3771 84.853C95.801 84.265 97.0184 83.2692 97.8756 81.9913C98.7327 80.7135 99.1911 79.2109 99.1929 77.6733C99.1929 76.6497 98.9907 75.6361 98.5978 74.6905C98.2049 73.7449 97.629 72.8857 96.9031 72.1623C96.1772 71.4389 95.3155 70.8654 94.3673 70.4745C93.4191 70.0836 92.4029 69.8831 91.3769 69.8843Z" fill="#3A3A3A"/>
<path d="M46.0153 112.009H37.6092C37.0074 112.009 36.4301 111.77 36.0045 111.345C35.5789 110.921 35.3398 110.345 35.3398 109.744V65.7724C24.855 63.7255 16.0087 56.6112 9.65877 45.0951C3.43141 33.7738 0 18.5806 0 2.26426C0 1.66374 0.239107 1.08788 0.66471 0.663248C1.09031 0.238616 1.66755 0 2.26945 0H17.1525C17.7544 0 18.3316 0.238616 18.7572 0.663248C19.1828 1.08788 19.4219 1.66374 19.4219 2.26426V11.3983C19.4219 11.9988 19.1828 12.5748 18.7572 12.9994C18.3316 13.424 17.7544 13.6625 17.1525 13.6625H13.7483C15.2053 27.1983 20.7473 52.9838 41.7351 52.9838C56.9677 52.9838 67.4343 38.343 69.9897 13.6625H67.1211C66.5192 13.6625 65.942 13.424 65.5164 12.9994C65.0908 12.5748 64.8517 11.9988 64.8517 11.3983V2.26426C64.8517 1.66374 65.0908 1.08788 65.5164 0.663248C65.942 0.238616 66.5192 0 67.1211 0H81.1917C81.7936 0 82.3708 0.238616 82.7964 0.663248C83.222 1.08788 83.4611 1.66374 83.4611 2.26426C83.4611 18.8659 80.1796 33.6605 73.9704 45.0453C67.6885 56.5749 58.8286 63.6983 48.2666 65.7633V109.744C48.2666 110.342 48.03 110.915 47.6083 111.339C47.1866 111.763 46.614 112.004 46.0153 112.009ZM39.8787 107.48H43.7458V63.8432C43.741 63.291 43.9386 62.7561 44.3013 62.3391C44.6641 61.9221 45.1672 61.6518 45.7158 61.5789C65.1286 58.9841 78.3186 36.1694 78.9177 4.51946H69.386V9.12494H72.4725C72.7864 9.12394 73.0972 9.18795 73.385 9.31289C73.6729 9.43784 73.9317 9.62105 74.145 9.85088C74.3583 10.0807 74.5215 10.3523 74.6242 10.6482C74.727 10.9442 74.7671 11.2582 74.7419 11.5704C73.6889 24.6398 70.4254 35.7482 65.301 43.6958C59.4776 52.7257 51.3304 57.5033 41.7351 57.5033C23.3481 57.5033 11.4153 40.7477 8.99157 11.5749C8.96579 11.2624 9.00536 10.9478 9.10781 10.6513C9.21026 10.3548 9.37333 10.0828 9.58669 9.85243C9.80005 9.62209 10.0591 9.43845 10.3473 9.31323C10.6355 9.18801 10.9467 9.12389 11.261 9.12494H14.8921V4.51946H4.57069C4.86572 19.2191 8.06564 32.7775 13.6485 42.9033C19.667 53.8261 28.0594 60.2883 37.9179 61.6016C38.4626 61.674 38.9625 61.9411 39.3248 62.3533C39.6871 62.7655 39.8871 63.2949 39.8878 63.8432L39.8787 107.48Z" fill="#3A3A3A"/>
<path d="M91.377 59.1065C86.6138 59.0703 82.0179 60.8578 78.536 64.1008C75.0541 67.3439 72.9511 71.7956 72.6603 76.5392C72.3694 81.2828 73.9128 85.9571 76.9725 89.5995C80.0322 93.2418 84.3754 95.5749 89.1075 96.1182V127.94C89.1362 128.237 89.1007 128.536 89.0037 128.818C88.9066 129.1 88.7501 129.358 88.5447 129.575C87.764 130.345 86.2117 130.508 85.7669 130.481H50.7085C48.2485 130.481 46.4374 129.901 45.3299 128.76C44.4969 127.845 44.0259 126.658 44.0046 125.422C44.0069 125.383 44.0069 125.344 44.0046 125.305V112.018H46.0107C46.6126 112.018 47.1899 111.779 47.6155 111.355C48.0411 110.93 48.2802 110.354 48.2802 109.754V72.6921L43.7413 75.0333V107.462H39.8742V77.0305L35.3353 79.3717V109.713C35.3353 110.313 35.5744 110.889 36 111.314C36.4256 111.739 37.0029 111.977 37.6048 111.977H39.4657V125.219C39.4328 127.654 40.3377 130.009 41.9938 131.799C43.9955 133.9 46.9231 134.968 50.704 134.968H85.7715C86.5295 134.968 89.5751 134.837 91.672 132.781C92.3142 132.142 92.8183 131.378 93.1532 130.537C93.4881 129.696 93.6467 128.795 93.6192 127.89V96.0639C98.3429 95.5109 102.675 93.1742 105.726 89.5339C108.777 85.8936 110.316 81.226 110.025 76.4895C109.735 71.7531 107.637 67.3073 104.164 64.0652C100.691 60.8232 96.1058 59.031 91.3497 59.0567L91.377 59.1065ZM91.377 91.7119C88.5941 91.7119 85.8737 90.8886 83.5598 89.3461C81.2459 87.8035 79.4425 85.611 78.3775 83.0458C77.3125 80.4806 77.0338 77.6579 77.5768 74.9347C78.1197 72.2115 79.4598 69.7101 81.4276 67.7468C83.3954 65.7835 85.9025 64.4465 88.6319 63.9048C91.3614 63.3632 94.1905 63.6411 96.7615 64.7036C99.3326 65.7662 101.53 67.5656 103.076 69.8742C104.622 72.1828 105.448 74.897 105.448 77.6735C105.44 81.3945 103.956 84.9611 101.318 87.5923C98.6812 90.2234 95.1065 91.7048 91.377 91.7119Z" fill="#F05226"/>
<path d="M91.3769 65.3557C88.9381 65.3593 86.5551 66.084 84.5289 67.4382C82.5027 68.7925 80.9243 70.7156 79.9931 72.9644C79.0619 75.2133 78.8196 77.687 79.2969 80.0732C79.7743 82.4594 80.9498 84.651 82.6749 86.3709C84.4 88.0909 86.5974 89.262 88.9894 89.7365C91.3814 90.211 93.8607 89.9675 96.114 89.0367C98.3673 88.106 100.294 86.5298 101.649 84.5072C103.005 82.4847 103.73 80.1065 103.732 77.6733C103.731 76.0551 103.411 74.4529 102.79 72.9581C102.169 71.4634 101.258 70.1053 100.111 68.9615C98.964 67.8177 97.6022 66.9106 96.1035 66.2919C94.6049 65.6732 92.9988 65.3551 91.3769 65.3557ZM91.3769 85.4442C89.835 85.4406 88.3288 84.9811 87.0487 84.1237C85.7685 83.2662 84.7719 82.0493 84.1848 80.6269C83.5976 79.2044 83.4463 77.6402 83.75 76.132C84.0536 74.6238 84.7986 73.2393 85.8908 72.1534C86.983 71.0675 88.3733 70.329 89.886 70.0313C91.3988 69.7336 92.966 69.8901 94.3896 70.4808C95.8133 71.0716 97.0294 72.0702 97.8843 73.3504C98.7393 74.6306 99.1947 76.1349 99.1929 77.6733C99.1881 79.7375 98.3622 81.7155 96.8967 83.1725C95.4311 84.6296 93.4459 85.4466 91.3769 85.4442Z" fill="#F05226"/>
</g>
<defs>
<clipPath id="clip0_400_155">
<rect width="110" height="135" fill="white"/>
</clipPath>
</defs>
</svg>
