<svg width="110" height="144" viewBox="0 0 110 144" fill="none" xmlns="http://www.w3.org/2000/svg">
<g clip-path="url(#clip0_400_138)">
<path d="M107.504 144H2.49592C1.83396 144 1.19912 143.738 0.731042 143.272C0.262967 142.805 0 142.173 0 141.514V2.48636C0 1.82694 0.262967 1.19447 0.731042 0.728183C1.19912 0.2619 1.83396 0 2.49592 0H107.504C108.166 0 108.801 0.2619 109.269 0.728183C109.737 1.19447 110 1.82694 110 2.48636V141.514C110 142.173 109.737 142.805 109.269 143.272C108.801 143.738 108.166 144 107.504 144ZM4.99183 139.027H105.008V4.97272H4.99183V139.027Z" fill="#3A3A3A"/>
<path d="M107.504 144H2.49592C1.83396 144 1.19912 143.738 0.731042 143.272C0.262967 142.805 0 142.173 0 141.514V2.48636C0 1.82694 0.262967 1.19447 0.731042 0.728183C1.19912 0.2619 1.83396 0 2.49592 0H107.504C108.166 0 108.801 0.2619 109.269 0.728183C109.737 1.19447 110 1.82694 110 2.48636V141.514C110 142.173 109.737 142.805 109.269 143.272C108.801 143.738 108.166 144 107.504 144ZM4.99183 139.027H105.008V4.97272H4.99183V139.027Z" fill="#3A3A3A"/>
<path d="M90.3921 13.2475H19.588C18.926 13.2475 18.2912 12.9856 17.8231 12.5193C17.355 12.053 17.092 11.4206 17.092 10.7611V2.50638C17.092 1.84696 17.355 1.21461 17.8231 0.748324C18.2912 0.282041 18.926 0.0200195 19.588 0.0200195H90.3921C91.054 0.0200195 91.6889 0.282041 92.157 0.748324C92.625 1.21461 92.888 1.84696 92.888 2.50638V10.7611C92.888 11.4206 92.625 12.053 92.157 12.5193C91.6889 12.9856 91.054 13.2475 90.3921 13.2475ZM22.0839 8.27478H87.8962V4.99274H22.0839V8.27478Z" fill="#3A3A3A"/>
<path d="M29.6415 48.4095C29.2765 48.4086 28.9161 48.328 28.5858 48.1733C28.2555 48.0187 27.9632 47.7937 27.7296 47.5144L23.4566 42.4273C23.2462 42.1768 23.0873 41.8876 22.9891 41.576C22.8909 41.2644 22.8553 40.9366 22.8843 40.6113C22.9133 40.286 23.0063 39.9695 23.158 39.68C23.3097 39.3905 23.5172 39.1336 23.7686 38.924C24.02 38.7144 24.3104 38.5561 24.6232 38.4583C24.936 38.3605 25.265 38.3251 25.5916 38.3539C25.9182 38.3828 26.2358 38.4754 26.5264 38.6266C26.817 38.7777 27.0749 38.9844 27.2854 39.2348L29.5367 41.9151L35.5918 33.8593C35.9889 33.3317 36.5802 32.983 37.2355 32.8897C37.8908 32.7965 38.5565 32.9664 39.086 33.362C39.6156 33.7577 39.9657 34.3467 40.0593 34.9995C40.1529 35.6523 39.9824 36.3154 39.5852 36.8429L31.6382 47.4149C31.4124 47.7151 31.1213 47.9605 30.7868 48.1328C30.4522 48.305 30.0829 48.3996 29.7064 48.4095H29.6415Z" fill="#3A3A3A"/>
<path d="M29.6415 79.8818C29.2769 79.8816 28.9168 79.8018 28.5865 79.648C28.2562 79.4942 27.9637 79.2702 27.7296 78.9917L23.4566 73.9146C23.2353 73.6657 23.0663 73.375 22.9597 73.0599C22.8531 72.7448 22.811 72.4115 22.836 72.0799C22.8609 71.7483 22.9524 71.4251 23.105 71.1293C23.2576 70.8335 23.4682 70.5713 23.7244 70.358C23.9805 70.1448 24.277 69.9849 24.5963 69.8878C24.9155 69.7908 25.2511 69.7585 25.5832 69.7929C25.9152 69.8273 26.2369 69.9277 26.5293 70.0881C26.8217 70.2486 27.0788 70.4659 27.2854 70.7271L29.5367 73.4024L35.5918 65.3466C35.989 64.819 36.5802 64.4703 37.2355 64.3771C37.8909 64.2838 38.5565 64.4537 39.0861 64.8493C39.6156 65.245 39.9657 65.834 40.0594 66.4868C40.153 67.1396 39.9824 67.8027 39.5852 68.3302L31.6432 78.8873C31.4174 79.1875 31.1263 79.4329 30.7918 79.6051C30.4572 79.7774 30.0879 79.872 29.7114 79.8818H29.6415Z" fill="#3A3A3A"/>
<path d="M29.6415 112.597C29.2752 112.599 28.9131 112.519 28.581 112.366C28.2489 112.212 27.9548 111.987 27.7196 111.707L23.4466 106.62C23.2253 106.371 23.0563 106.081 22.9497 105.765C22.8431 105.45 22.801 105.117 22.826 104.785C22.8509 104.454 22.9424 104.131 23.095 103.835C23.2476 103.539 23.4582 103.277 23.7143 103.064C23.9705 102.85 24.267 102.69 24.5862 102.593C24.9055 102.496 25.2411 102.464 25.5731 102.498C25.9052 102.533 26.2269 102.633 26.5193 102.794C26.8117 102.954 27.0688 103.171 27.2754 103.433L29.5267 106.108L35.5818 98.0522C35.979 97.5246 36.5702 97.1759 37.2255 97.0826C37.8808 96.9894 38.5465 97.1592 39.0761 97.5549C39.6056 97.9505 39.9557 98.5396 40.0493 99.1924C40.143 99.8452 39.9724 100.508 39.5752 101.036L31.6282 111.613C31.4024 111.913 31.1113 112.158 30.7768 112.331C30.4422 112.503 30.0729 112.597 29.6964 112.607L29.6415 112.597Z" fill="#3A3A3A"/>
<path d="M84.4968 43.1185H44.4473C43.7854 43.1185 43.1505 42.8565 42.6824 42.3902C42.2144 41.9239 41.9514 41.2915 41.9514 40.6321C41.9514 39.9727 42.2144 39.3402 42.6824 38.8739C43.1505 38.4077 43.7854 38.1458 44.4473 38.1458H84.4968C85.1587 38.1458 85.7936 38.4077 86.2617 38.8739C86.7297 39.3402 86.9927 39.9727 86.9927 40.6321C86.9927 41.2915 86.7297 41.9239 86.2617 42.3902C85.7936 42.8565 85.1587 43.1185 84.4968 43.1185Z" fill="#3A3A3A"/>
<path d="M84.4968 75.2173H44.4473C43.7854 75.2173 43.1505 74.9553 42.6824 74.489C42.2144 74.0228 41.9514 73.3904 41.9514 72.731C41.9514 72.0716 42.2144 71.4391 42.6824 70.9728C43.1505 70.5065 43.7854 70.2446 44.4473 70.2446H84.4968C85.1587 70.2446 85.7936 70.5065 86.2617 70.9728C86.7297 71.4391 86.9927 72.0716 86.9927 72.731C86.9927 73.3904 86.7297 74.0228 86.2617 74.489C85.7936 74.9553 85.1587 75.2173 84.4968 75.2173Z" fill="#3A3A3A"/>
<path d="M84.4968 107.306H44.4473C44.1196 107.306 43.795 107.242 43.4922 107.117C43.1894 106.992 42.9142 106.809 42.6824 106.578C42.4507 106.347 42.2668 106.073 42.1414 105.771C42.016 105.47 41.9514 105.146 41.9514 104.82C41.9514 104.493 42.016 104.17 42.1414 103.868C42.2668 103.567 42.4507 103.293 42.6824 103.062C42.9142 102.831 43.1894 102.648 43.4922 102.523C43.795 102.398 44.1196 102.333 44.4473 102.333H84.4968C84.8246 102.333 85.1491 102.398 85.452 102.523C85.7548 102.648 86.0299 102.831 86.2617 103.062C86.4934 103.293 86.6773 103.567 86.8027 103.868C86.9281 104.17 86.9927 104.493 86.9927 104.82C86.9927 105.146 86.9281 105.47 86.8027 105.771C86.6773 106.073 86.4934 106.347 86.2617 106.578C86.0299 106.809 85.7548 106.992 85.452 107.117C85.1491 107.242 84.8246 107.306 84.4968 107.306Z" fill="#3A3A3A"/>
<path d="M58.9086 139.027H4.99683V4.97295H17.097V10.7611C17.097 11.4206 17.36 12.053 17.8281 12.5193C18.2961 12.9856 18.931 13.2475 19.5929 13.2475H50.6022L50.2777 8.27478H22.0839V4.99274H50.0381L49.7087 0.0200195H2.49592C1.83396 0.0200195 1.19912 0.282041 0.731043 0.748324C0.262968 1.21461 0 1.84696 0 2.50638V141.534C0 142.193 0.262968 142.826 0.731043 143.292C1.19912 143.758 1.83396 144.02 2.49592 144.02H59.2381L58.9086 139.027Z" fill="#F05226"/>
<path d="M39.086 33.3569C38.5565 32.9612 37.8908 32.7914 37.2355 32.8846C36.5802 32.9779 35.9889 33.3266 35.5918 33.8542L29.5367 41.9099L27.2854 39.2297C27.0749 38.9793 26.817 38.7726 26.5264 38.6215C26.2358 38.4703 25.9182 38.3776 25.5916 38.3488C25.265 38.3199 24.936 38.3554 24.6232 38.4532C24.3104 38.551 24.02 38.7093 23.7686 38.9189C23.5172 39.1285 23.3097 39.3854 23.158 39.6749C23.0063 39.9644 22.9133 40.2809 22.8843 40.6062C22.8553 40.9315 22.8909 41.2593 22.9891 41.5709C23.0873 41.8824 23.2462 42.1717 23.4566 42.4221L27.7296 47.5092C27.9632 47.7886 28.2555 48.0136 28.5858 48.1682C28.9161 48.3229 29.2765 48.4035 29.6415 48.4043H29.7164C30.0928 48.3945 30.4622 48.2999 30.7967 48.1277C31.1313 47.9554 31.4224 47.71 31.6482 47.4098L39.5952 36.8378C39.7914 36.576 39.9338 36.2783 40.0143 35.9616C40.0949 35.6449 40.112 35.3155 40.0647 34.9922C40.0175 34.6689 39.9067 34.3581 39.7388 34.0775C39.5708 33.7969 39.349 33.5521 39.086 33.3569Z" fill="#F05226"/>
<path d="M39.0861 64.8442C38.8238 64.6483 38.5255 64.5058 38.208 64.4247C37.8904 64.3437 37.56 64.3257 37.2355 64.3719C36.9111 64.4181 36.5989 64.5274 36.3169 64.6938C36.0348 64.8601 35.7884 65.0802 35.5918 65.3414L29.5367 73.4171L27.2854 70.7419C27.0788 70.4807 26.8217 70.2634 26.5293 70.1029C26.2369 69.9425 25.9152 69.842 25.5832 69.8075C25.2511 69.7731 24.9155 69.8055 24.5963 69.9026C24.277 69.9997 23.9805 70.1596 23.7244 70.3728C23.4682 70.586 23.2576 70.8483 23.105 71.1441C22.9524 71.4398 22.8609 71.7631 22.836 72.0947C22.811 72.4263 22.8531 72.7595 22.9597 73.0746C23.0663 73.3898 23.2353 73.6804 23.4566 73.9293L27.7296 79.0214C27.9637 79.2999 28.2562 79.5238 28.5865 79.6776C28.9168 79.8314 29.2769 79.9113 29.6415 79.9115H29.7164C30.0929 79.9017 30.4622 79.8071 30.7968 79.6348C31.1313 79.4626 31.4224 79.2172 31.6482 78.917L39.5952 68.34C39.7937 68.0777 39.938 67.7788 40.0199 67.4607C40.1018 67.1425 40.1195 66.8113 40.0722 66.4863C40.0249 66.1612 39.9133 65.8489 39.7441 65.567C39.5748 65.2852 39.3512 65.0394 39.0861 64.8442Z" fill="#F05226"/>
<path d="M39.0861 97.5449C38.8238 97.3489 38.5255 97.2064 38.208 97.1254C37.8904 97.0444 37.56 97.0264 37.2355 97.0726C36.9111 97.1188 36.5989 97.2281 36.3169 97.3944C36.0348 97.5608 35.7884 97.7809 35.5918 98.0421L29.5367 106.098L27.2854 103.423C27.0788 103.161 26.8217 102.944 26.5293 102.784C26.2369 102.623 25.9152 102.523 25.5832 102.488C25.2511 102.454 24.9155 102.486 24.5963 102.583C24.277 102.68 23.9805 102.84 23.7244 103.054C23.4682 103.267 23.2576 103.529 23.105 103.825C22.9524 104.121 22.8609 104.444 22.836 104.775C22.811 105.107 22.8531 105.44 22.9597 105.755C23.0663 106.071 23.2353 106.361 23.4566 106.61L27.7197 111.707C27.9533 111.987 28.2455 112.211 28.5759 112.366C28.9062 112.521 29.2665 112.601 29.6315 112.602H29.7164C30.0929 112.592 30.4622 112.498 30.7968 112.326C31.1313 112.153 31.4224 111.908 31.6482 111.608L39.5952 101.031C39.7921 100.769 39.9352 100.471 40.0162 100.153C40.0972 99.8363 40.1145 99.5063 40.0672 99.1825C40.0199 98.8586 39.9089 98.5473 39.7405 98.2662C39.5722 97.9852 39.3497 97.7401 39.0861 97.5449Z" fill="#F05226"/>
<path d="M41.9514 40.6321C41.9514 41.2915 42.2144 41.9239 42.6824 42.3902C43.1505 42.8565 43.7854 43.1185 44.4473 43.1185H52.574L52.2446 38.1458H44.4473C43.7854 38.1458 43.1505 38.4077 42.6824 38.8739C42.2144 39.3402 41.9514 39.9727 41.9514 40.6321Z" fill="#F05226"/>
<path d="M41.9514 72.731C41.9514 73.3904 42.2144 74.0228 42.6824 74.489C43.1505 74.9553 43.7854 75.2173 44.4473 75.2173H54.6756L54.3461 70.2446H44.4473C43.7854 70.2446 43.1505 70.5065 42.6824 70.9728C42.2144 71.4391 41.9514 72.0716 41.9514 72.731Z" fill="#F05226"/>
<path d="M41.9514 104.82C41.9514 105.479 42.2144 106.112 42.6824 106.578C43.1505 107.044 43.7854 107.306 44.4473 107.306H56.8171L56.4876 102.333H44.4473C43.7854 102.333 43.1505 102.596 42.6824 103.062C42.2144 103.528 41.9514 104.16 41.9514 104.82Z" fill="#F05226"/>
</g>
<defs>
<clipPath id="clip0_400_138">
<rect width="110" height="144" fill="white"/>
</clipPath>
</defs>
</svg>
