<svg width="120" height="94" viewBox="0 0 120 94" fill="none" xmlns="http://www.w3.org/2000/svg">
<g clip-path="url(#clip0_400_162)">
<path d="M59.8996 67.1575H1.82543C1.34129 67.1575 0.877039 66.9652 0.534704 66.6229C0.19237 66.2805 0 65.8162 0 65.3321V1.82543C0 1.34129 0.19237 0.876949 0.534704 0.534615C0.877039 0.192281 1.34129 0 1.82543 0H98.5257C99.0098 0 99.4741 0.192281 99.8164 0.534615C100.159 0.876949 100.351 1.34129 100.351 1.82543V35.4133C100.351 35.8974 100.159 36.3617 99.8164 36.704C99.4741 37.0464 99.0098 37.2387 98.5257 37.2387C98.0416 37.2387 97.5772 37.0464 97.2349 36.704C96.8926 36.3617 96.7003 35.8974 96.7003 35.4133V3.65086H3.65086V63.5066H59.8996C60.3838 63.5066 60.848 63.6989 61.1904 64.0412C61.5327 64.3836 61.7251 64.8479 61.7251 65.3321C61.7251 65.8162 61.5327 66.2805 61.1904 66.6229C60.848 66.9652 60.3838 67.1575 59.8996 67.1575Z" fill="#3A3A3A"/>
<path d="M98.5257 25.9029H1.82543C1.34129 25.9029 0.877039 25.7106 0.534704 25.3683C0.19237 25.0259 0 24.5616 0 24.0775V9.14916C0 8.66502 0.19237 8.20068 0.534704 7.85835C0.877039 7.51601 1.34129 7.32373 1.82543 7.32373H98.5257C99.0098 7.32373 99.4741 7.51601 99.8164 7.85835C100.159 8.20068 100.351 8.66502 100.351 9.14916V24.0775C100.351 24.5616 100.159 25.0259 99.8164 25.3683C99.4741 25.7106 99.0098 25.9029 98.5257 25.9029ZM3.65086 22.252H96.7003V10.9746H3.65086V22.252Z" fill="#3A3A3A"/>
<path d="M88.9896 93.9985C82.8564 93.9985 76.8608 92.1798 71.7612 88.7723C66.6615 85.3649 62.6869 80.5217 60.3398 74.8553C57.9927 69.1889 57.3786 62.9537 58.5751 56.9383C59.7717 50.9229 62.7252 45.3974 67.062 41.0605C71.3989 36.7236 76.9244 33.7702 82.9398 32.5737C88.9552 31.3771 95.1904 31.9912 100.857 34.3383C106.523 36.6854 111.366 40.6601 114.774 45.7597C118.181 50.8593 120 56.8549 120 62.9882C119.994 71.2108 116.725 79.095 110.911 84.9093C105.097 90.7237 97.2123 93.9927 88.9896 93.9985ZM88.9896 35.6322C83.5783 35.6322 78.2884 37.2369 73.7891 40.2434C69.2898 43.2499 65.783 47.5231 63.7124 52.5226C61.6417 57.5221 61.1001 63.0234 62.1561 68.3308C63.2121 73.6381 65.8182 78.5131 69.6448 82.3392C73.4715 86.1654 78.3468 88.7708 83.6543 89.8261C88.9617 90.8813 94.463 90.339 99.4622 88.2677C104.461 86.1963 108.734 82.689 111.74 78.1892C114.746 73.6895 116.35 68.3995 116.349 62.9882C116.342 55.7344 113.458 48.7797 108.328 43.6508C103.198 38.522 96.2434 35.638 88.9896 35.6322Z" fill="#3A3A3A"/>
<path d="M88.9897 85.8171C84.4746 85.8171 80.0609 84.4782 76.3067 81.9697C72.5525 79.4612 69.6264 75.8959 67.8986 71.7245C66.1707 67.5531 65.7187 62.963 66.5996 58.5346C67.4804 54.1062 69.6546 50.0385 72.8473 46.8458C76.04 43.6531 80.1076 41.4789 84.536 40.5981C88.9644 39.7172 93.5545 40.1693 97.7259 41.8972C101.897 43.625 105.463 46.551 107.971 50.3052C110.48 54.0594 111.818 58.4732 111.818 62.9883C111.813 69.0411 109.406 74.8443 105.126 79.1242C100.846 83.4042 95.0425 85.8113 88.9897 85.8171ZM88.9897 43.814C85.1965 43.814 81.4885 44.9388 78.3346 47.0463C75.1808 49.1537 72.7227 52.1491 71.2713 55.6537C69.8198 59.1582 69.4402 63.0144 70.1805 66.7347C70.9207 70.4549 72.7476 73.8721 75.4301 76.554C78.1125 79.236 81.5301 81.0622 85.2505 81.8018C88.9709 82.5413 92.8271 82.161 96.3313 80.7089C99.8356 79.2568 102.83 76.7982 104.937 73.6439C107.044 70.4897 108.168 66.7815 108.168 62.9883C108.162 57.9041 106.139 53.0298 102.544 49.4351C98.9485 45.8404 94.0739 43.8188 88.9897 43.814Z" fill="#3A3A3A"/>
<path d="M90.2529 74.6929C89.8002 74.6929 89.3366 74.6674 88.8546 74.6235C85.934 74.3497 83.7252 73.3239 82.2831 71.5788C81.1371 70.1736 80.5657 68.3864 80.684 66.577C80.7324 66.0953 80.9702 65.6526 81.3451 65.3462C81.7199 65.0398 82.2011 64.8949 82.6829 64.9433C83.1646 64.9917 83.6073 65.2295 83.9137 65.6043C84.2201 65.9792 84.365 66.4604 84.3166 66.9421C84.2728 67.5153 84.3166 70.52 89.1868 70.98C94.0571 71.44 94.5938 68.7092 94.6631 68.1579C94.6636 68.0875 94.6735 68.0175 94.6924 67.9498C94.754 67.3204 94.5853 66.6901 94.2177 66.1755C93.5825 65.2847 92.2791 64.6567 90.4537 64.3501C84.2472 63.3351 81.6222 61.3892 81.3922 57.6361C81.3276 56.7536 81.4457 55.8673 81.739 55.0325C82.0324 54.1976 82.4948 53.4322 83.0972 52.7841C84.5576 51.2398 86.8065 50.4768 89.7125 50.5206C95.5174 50.6009 97.3793 55.3507 97.5326 57.8552C97.5494 58.0949 97.5189 58.3355 97.4426 58.5634C97.3664 58.7913 97.2461 59.002 97.0884 59.1833C96.9308 59.3647 96.7389 59.5133 96.5238 59.6205C96.3088 59.7278 96.0748 59.7916 95.835 59.8084C95.5953 59.8252 95.3547 59.7945 95.1268 59.7183C94.8989 59.6421 94.6882 59.5217 94.5069 59.3641C94.3255 59.2065 94.1769 59.0146 94.0697 58.7995C93.9624 58.5845 93.8986 58.3504 93.8818 58.1107C93.827 57.4572 93.3671 54.2225 89.6542 54.1678C87.8287 54.1459 86.4597 54.5329 85.7258 55.3032C85.4733 55.5899 85.281 55.9244 85.1606 56.287C85.0401 56.6495 84.994 57.0327 85.0249 57.4134C85.0833 58.359 85.1709 59.7865 91.0305 60.7466C93.9512 61.2212 96.0286 62.3676 97.237 64.1493C98.1202 65.4427 98.4862 67.0203 98.2628 68.5705C98.0343 70.2381 97.1968 71.7622 95.9117 72.8493C94.4988 74.0942 92.5894 74.6929 90.2529 74.6929Z" fill="#3A3A3A"/>
<path d="M89.5154 79.4208C89.0312 79.4208 88.567 79.2285 88.2246 78.8861C87.8823 78.5438 87.6899 78.0795 87.6899 77.5954V48.3374C87.6899 47.8533 87.8823 47.389 88.2246 47.0467C88.567 46.7043 89.0312 46.512 89.5154 46.512C89.9995 46.512 90.4638 46.7043 90.8062 47.0467C91.1485 47.389 91.3408 47.8533 91.3408 48.3374V77.5954C91.3408 78.0795 91.1485 78.5438 90.8062 78.8861C90.4638 79.2285 89.9995 79.4208 89.5154 79.4208Z" fill="#3A3A3A"/>
<path d="M100.351 34.1466V28.9587H96.7003V32.9528C92.1201 31.7814 87.3328 31.672 82.7039 32.633C78.0751 33.5939 73.7269 35.5997 69.9914 38.4973C66.256 41.3949 63.2319 45.1077 61.1501 49.3522C59.0682 53.5967 57.9837 58.2608 57.9793 62.9884C57.9793 63.1563 57.9793 63.3242 57.9793 63.4921H3.65086V43.3358L0 43.9893V65.3322C0 65.8163 0.19237 66.2807 0.534704 66.623C0.877039 66.9653 1.34129 67.1576 1.82543 67.1576H58.2677C58.9976 72.5707 61.1444 77.6949 64.491 82.0117C67.8376 86.3285 72.2652 89.6846 77.3255 91.7405C82.3859 93.7964 87.8995 94.479 93.3084 93.7194C98.7174 92.9598 103.83 90.7848 108.128 87.4146C112.426 84.0444 115.758 79.5986 117.786 74.527C119.814 69.4554 120.467 63.9381 119.678 58.5334C118.888 53.1286 116.685 48.0283 113.292 43.7485C109.898 39.4688 105.434 36.1614 100.351 34.1612V34.1466ZM88.9896 90.3479C83.5784 90.3479 78.2887 88.7433 73.7895 85.737C69.2902 82.7307 65.7835 78.4577 63.7127 73.4584C61.6419 68.4591 61.1002 62.958 62.1558 57.6508C63.2115 52.3435 65.8173 47.4685 69.6436 43.6422C73.4699 39.8159 78.3448 37.2101 83.652 36.1545C88.9593 35.0988 94.4603 35.6407 99.4596 37.7114C104.459 39.7822 108.732 43.2889 111.738 47.7882C114.745 52.2874 116.349 57.5772 116.349 62.9884C116.343 70.2428 113.459 77.1984 108.329 82.328C103.2 87.4577 96.244 90.3421 88.9896 90.3479Z" fill="#F05226"/>
<path d="M88.9897 40.1631C84.4744 40.1631 80.0606 41.502 76.3063 44.0107C72.5521 46.5193 69.626 50.0849 67.8982 54.2565C66.1705 58.4281 65.7187 63.0185 66.5998 67.4469C67.481 71.8754 69.6555 75.943 72.8485 79.1355C76.0416 82.3281 80.1096 84.502 84.5382 85.3825C88.9668 86.2629 93.557 85.8103 97.7284 84.0819C101.9 82.3535 105.465 79.4269 107.973 75.6722C110.481 71.9176 111.819 67.5035 111.818 62.9882C111.812 56.9361 109.404 51.1338 105.124 46.8546C100.845 42.5754 95.0418 40.1689 88.9897 40.1631ZM88.9897 82.1662C85.1966 82.1662 81.4888 81.0414 78.335 78.9341C75.1812 76.8268 72.7231 73.8316 71.2715 70.3273C69.82 66.823 69.4402 62.9669 70.1802 59.2467C70.9202 55.5266 72.7467 52.1095 75.4288 49.4274C78.1109 46.7453 81.5281 44.9187 85.2483 44.1788C88.9684 43.4388 92.8244 43.8186 96.3287 45.2701C99.833 46.7216 102.828 49.1798 104.936 52.3336C107.043 55.4874 108.168 59.1952 108.168 62.9882C108.162 68.0728 106.139 72.9474 102.544 76.5427C98.9488 80.138 94.0742 82.1604 88.9897 82.1662Z" fill="#F05226"/>
<path d="M91.3408 60.8197V54.4818C93.5313 55.2996 93.8526 57.585 93.8964 58.1327C93.9132 58.3724 93.9771 58.6064 94.0843 58.8215C94.1916 59.0365 94.3401 59.2284 94.5214 59.3861C94.7028 59.5437 94.9135 59.664 95.1413 59.7403C95.3692 59.8165 95.61 59.8471 95.8497 59.8303C96.0894 59.8135 96.3234 59.7497 96.5385 59.6425C96.7535 59.5352 96.9454 59.3867 97.1031 59.2053C97.2607 59.0239 97.381 58.8133 97.4573 58.5854C97.5335 58.3575 97.5641 58.1169 97.5473 57.8771C97.3976 55.6246 95.8825 51.5501 91.3408 50.6995V48.3411C91.3408 47.8569 91.1486 47.3927 90.8062 47.0503C90.4639 46.708 89.9995 46.5156 89.5154 46.5156C89.0313 46.5156 88.567 46.708 88.2247 47.0503C87.8823 47.3927 87.69 47.8569 87.69 48.3411V50.6557C85.7514 50.9222 84.2071 51.6414 83.1009 52.8024C82.4987 53.4514 82.0366 54.2175 81.7433 55.0529C81.4499 55.8883 81.3317 56.775 81.3959 57.658C81.5857 60.7941 83.455 62.667 87.69 63.7915V70.7281C84.3093 69.8592 84.291 67.4423 84.3276 66.9422C84.3515 66.7036 84.3283 66.4627 84.2592 66.2332C84.1901 66.0037 84.0764 65.79 83.9247 65.6044C83.773 65.4188 83.5862 65.2649 83.375 65.1515C83.1638 65.0381 82.9324 64.9673 82.6938 64.9434C82.4553 64.9194 82.2143 64.9426 81.9848 65.0117C81.7553 65.0809 81.5417 65.1945 81.3561 65.3462C81.1704 65.4979 81.0165 65.6847 80.9031 65.8959C80.7897 66.1071 80.7189 66.3385 80.695 66.5771C80.5767 68.3865 81.148 70.1736 82.294 71.5788C83.528 73.083 85.3425 74.0504 87.69 74.463V77.5954C87.69 78.0795 87.8823 78.5438 88.2247 78.8861C88.567 79.2285 89.0313 79.4208 89.5154 79.4208C89.9995 79.4208 90.4639 79.2285 90.8062 78.8861C91.1486 78.5438 91.3408 78.0795 91.3408 77.5954V74.6382C93.0218 74.5412 94.6303 73.9208 95.9409 72.8638C97.2256 71.7763 98.0629 70.2525 98.2921 68.585C98.5154 67.0349 98.1494 65.4573 97.2662 64.1639C96.0869 62.4443 94.0899 61.3162 91.3408 60.8197ZM85.0395 57.4281C85.0084 57.0473 85.0545 56.6641 85.1749 56.3015C85.2954 55.939 85.4877 55.6044 85.7405 55.3179C86.2798 54.8102 86.9588 54.4757 87.69 54.3577V59.9837C85.1453 59.1257 85.0833 58.14 85.0395 57.4281ZM94.696 67.9571C94.6769 68.0248 94.667 68.0949 94.6668 68.1652C94.6157 68.6216 94.225 70.5711 91.3408 70.9691V64.5509C92.7026 64.8904 93.6957 65.4454 94.2214 66.1828C94.5893 66.6972 94.758 67.3277 94.696 67.9571Z" fill="#F05226"/>
</g>
<defs>
<clipPath id="clip0_400_162">
<rect width="120" height="93.9986" fill="white"/>
</clipPath>
</defs>
</svg>
