<svg width="150" height="133" viewBox="0 0 150 133" fill="none" xmlns="http://www.w3.org/2000/svg">
<g clip-path="url(#clip0_408_253)">
<path d="M102.445 127.819C135.883 119.708 156.387 86.1408 148.242 52.844C140.097 19.5472 106.387 -0.870189 72.9488 7.24055C39.5108 15.3513 19.0069 48.9187 27.152 82.2156C35.2971 115.512 69.0069 135.93 102.445 127.819Z" fill="#D8D8D8"/>
<path d="M63.5269 4.35163C63.5269 4.35163 68.5286 -1.10392 73.5304 4.35163C73.5304 4.35163 67.0848 42.0014 76.7273 53.4773C76.9821 53.7866 77.2578 54.0782 77.5524 54.3502C88.4324 64.6195 77.5524 61.0124 77.5524 61.0124C77.5524 61.0124 67.6263 55.5697 59.9819 61.6285L58.5768 54.6326C58.5768 54.6326 70.5912 39.0746 63.5269 4.35163Z" fill="white" stroke="#55565C" stroke-width="3" stroke-linecap="round" stroke-linejoin="round"/>
<path d="M58.4865 45.0051C58.4865 45.0051 68.1548 124.258 47.3229 129.072C26.491 133.886 1.12146 131.318 1.94649 107.25C2.77152 83.1812 51.3191 8.24108 58.4865 45.0051Z" fill="white" stroke="#55565C" stroke-width="3" stroke-linecap="round" stroke-linejoin="round"/>
<path d="M79.0478 45.0051C79.0478 45.0051 69.3795 124.258 90.1985 129.072C111.018 133.886 136.413 131.318 135.575 107.25C134.737 83.1812 86.2023 8.24108 79.0478 45.0051Z" fill="white"/>
<path d="M129.104 85.7613C126.534 80.131 123.655 74.6458 120.48 69.3304" stroke="#55565C" stroke-width="3" stroke-linecap="round" stroke-linejoin="round"/>
<path d="M111.082 55.1204C97.5464 36.841 82.7217 25.9684 79.0478 45.0051C79.0478 45.0051 69.3795 124.258 90.1985 129.072C111.018 133.886 136.413 131.318 135.575 107.25C135.427 104.518 134.96 101.813 134.183 99.1884" stroke="#55565C" stroke-width="3" stroke-linecap="round" stroke-linejoin="round"/>
<path d="M16.8743 81.5124C16.8743 81.5124 -8.04404 118.739 25.0343 126.017C25.0343 126.017 4.40869 110.613 16.8743 81.5124Z" fill="#D8D8D8"/>
<path d="M120.003 81.5124C120.003 81.5124 144.921 118.739 111.83 126.017C111.855 126.017 132.481 110.613 120.003 81.5124Z" fill="#D8D8D8"/>
</g>
<defs>
<clipPath id="clip0_408_253">
<rect width="150" height="133" fill="white"/>
</clipPath>
</defs>
</svg>
