<svg width="150" height="133" viewBox="0 0 150 133" fill="none" xmlns="http://www.w3.org/2000/svg">
<g clip-path="url(#clip0_408_477)">
<path d="M101.992 126.293C135.445 118.011 156.052 84.1293 148.02 50.6158C139.987 17.1024 106.358 -3.35195 72.9051 4.92984C39.4527 13.2116 18.8456 47.0934 26.8779 80.6068C34.9101 114.12 68.5401 134.575 101.992 126.293Z" fill="#FF795F"/>
<path d="M49.5615 6.71092C49.5615 6.71092 54.9651 1.468 65.9659 6.4881C65.9659 6.4881 75.6383 0.576709 83.157 8.21828C83.157 8.21828 98.1171 -0.288379 108.744 12.2684C108.744 12.2684 124.697 17.8915 118.661 31.392C122.414 33.1877 129.146 43.1886 120.144 54.1332C120.144 54.1332 127.882 65.2482 118.558 74.751C118.558 74.751 127.857 86.9408 112.29 99.4452C113.338 101.993 113.537 104.819 112.858 107.493C111.646 111.687 104.024 119.788 93.0229 113.051C93.0229 113.051 87.2323 120.351 81.416 114.047C81.416 114.047 75.4191 122.121 69.5124 117.586C69.5124 117.586 74.8774 124.572 67.1137 125.372C67.1137 125.372 68.816 136.172 60.5622 127.993C59.0275 126.459 56.1516 122.068 59.5047 118.818C59.5047 118.818 55.984 105.186 64.9729 105.186C64.9729 105.186 65.5016 94.7921 78.3853 98.9078C78.3853 98.9078 85.2721 93.6649 89.5021 94.4251C89.5021 94.4251 85.6332 83.8475 91.9783 80.977C91.9783 80.977 86.8196 72.7325 93.2034 69.3246C93.2034 69.3246 104.153 47.265 89.6827 41.3405C89.6827 41.3405 82.3575 44.6829 72.8398 37.1592C72.8398 37.1592 57.1704 46.9766 46.5823 38.3651C46.5823 38.3651 36.9228 43.8571 35.156 41.3405C35.156 41.3405 25.806 51.5642 30.2166 61.6044C34.6272 71.6446 29.791 71.1203 29.0301 75.4195C28.2692 79.7187 30.8485 82.0518 29.0301 84.9223C27.2117 87.7928 35.4784 93.3503 25.6254 96.2208C15.7724 99.0913 6.03552 95.6834 3.57228 86.9015C1.10903 78.1196 7.63469 77.2152 8.16345 76.8482C8.69221 76.4812 -0.722283 70.5829 3.00483 63.7409C3.00483 63.7409 -1.38 51.1841 7.44125 47.2388C7.44125 47.2388 -1.18653 36.3335 9.00176 29.4784C9.00176 29.4784 3.45621 21.5353 12.5612 14.0117C12.5612 14.0117 13.7606 0.969935 25.4578 5.95072C25.432 5.95072 36.3167 -3.49968 49.5615 6.71092Z" fill="white" stroke="#55565C" stroke-width="3" stroke-linecap="round" stroke-linejoin="round"/>
<path d="M7.23486 76.337C8.63176 77.404 10.2377 78.1538 11.9441 78.536C13.6506 78.9181 15.4178 78.9236 17.1265 78.5522" stroke="#55565C" stroke-width="3" stroke-linecap="round" stroke-linejoin="round"/>
<path d="M21.7566 35.5339C16.1208 37.867 9.27271 29.1245 9.27271 29.1245" stroke="#55565C" stroke-width="3" stroke-linecap="round" stroke-linejoin="round"/>
<path d="M120.028 54.4609C118.806 56.2072 117.203 57.6417 115.343 58.6515C113.483 59.6613 111.419 60.2189 109.311 60.2806" stroke="#55565C" stroke-width="3" stroke-linecap="round" stroke-linejoin="round"/>
<path d="M118.429 74.8035C118.429 74.8035 117.372 79.64 109.298 79.7842" stroke="#55565C" stroke-width="3" stroke-linecap="round" stroke-linejoin="round"/>
<path d="M112.265 99.3666C112.265 99.3666 105.958 101.555 97.3562 93.2192" stroke="#55565C" stroke-width="3" stroke-linecap="round" stroke-linejoin="round"/>
<path d="M89.5925 41.3929C89.5925 41.3929 95.151 40.5147 97.5368 35.6781" stroke="#55565C" stroke-width="3" stroke-linecap="round" stroke-linejoin="round"/>
<path d="M35.0142 41.2487C33.5483 41.03 32.1591 40.4433 30.9724 39.5416C29.7857 38.6399 28.8389 37.4516 28.2178 36.0844" stroke="#55565C" stroke-width="3" stroke-linecap="round" stroke-linejoin="round"/>
<path d="M108.653 12.2684C108.653 12.2684 109.943 17.9963 103.792 24.3272" stroke="#55565C" stroke-width="3" stroke-linecap="round" stroke-linejoin="round"/>
<path d="M118.519 31.4445C117.243 34.9219 115.103 38.0045 112.307 40.3931C109.512 42.7816 106.156 44.3948 102.566 45.0761" stroke="#55565C" stroke-width="3" stroke-linecap="round" stroke-linejoin="round"/>
<path d="M29.9715 60.949C29.9715 60.949 22.4141 64.0423 17.075 59.1402" stroke="#55565C" stroke-width="3" stroke-linecap="round" stroke-linejoin="round"/>
<path d="M93.0231 113.051C93.0231 113.051 88.1482 107.401 89.6442 101.936" stroke="#55565C" stroke-width="3" stroke-linecap="round" stroke-linejoin="round"/>
<path d="M27.3149 11.2592C27.3149 11.2592 36.4586 -0.249028 50.9802 13.4874C50.9802 13.4874 38.0836 6.61919 27.3149 11.2592Z" fill="#A7ADAF"/>
</g>
<defs>
<clipPath id="clip0_408_477">
<rect width="150" height="133" fill="white"/>
</clipPath>
</defs>
</svg>
