<svg width="150" height="133" viewBox="0 0 150 133" fill="none" xmlns="http://www.w3.org/2000/svg">
<g clip-path="url(#clip0_408_285)">
<path d="M102.126 127.809C135.79 119.681 156.432 86.0419 148.232 52.6742C140.032 19.3065 106.095 -1.15429 72.4312 6.9737C38.7675 15.1017 18.1252 48.7406 26.3253 82.1083C34.5254 115.476 68.4627 135.937 102.126 127.809Z" fill="#D8D8D8"/>
<path d="M24.6582 21.2254C24.6582 21.2254 -3.54304 22.6662 10.5641 56.3053L16.9493 57.849L24.6582 29.0724V21.2254Z" fill="white" stroke="#55565C" stroke-width="2.85" stroke-linecap="round" stroke-linejoin="round"/>
<path d="M19.6617 31.4523C19.6617 31.4523 10.7588 27.6831 4.45143 31.4523C-1.85588 35.2214 4.99651 39.7495 7.16384 40.457C9.33117 41.1645 17.5463 40.3412 18.0394 44.7664L19.6617 31.4523Z" fill="white" stroke="#55565C" stroke-width="2.85" stroke-linecap="round" stroke-linejoin="round"/>
<path d="M15.5346 49.3331C15.5346 49.3331 -8.81214 76.476 11.187 101.908C31.1861 127.34 50.5234 127.327 61.8013 128.189C73.0792 129.051 77.8811 134.428 84.8373 128.189C91.7935 121.95 105.485 90.0474 77.881 63.3419C50.2768 36.6364 63.7609 34.4753 63.7609 34.4753L36.8056 43.7373L15.5346 49.3331Z" fill="white"/>
<path d="M91.3912 83.2295C89.0992 77.2994 85.7494 71.8265 81.502 67.0724" stroke="#55565C" stroke-width="2.85" stroke-linecap="round" stroke-linejoin="round"/>
<path d="M72.599 57.9777C52.1716 36.3277 63.7869 34.4753 63.7869 34.4753L36.8315 43.7373L15.5346 49.3331C15.5346 49.3331 -8.81214 76.476 11.187 101.908C31.1861 127.34 50.5234 127.327 61.8013 128.189C73.0792 129.051 77.8811 134.428 84.8373 128.189C89.146 124.33 96.0503 110.591 94.1036 94.3568" stroke="#55565C" stroke-width="2.85" stroke-linecap="round" stroke-linejoin="round"/>
<path d="M21.2839 56.2667C25.0346 56.4082 31.5495 56.2667 36.1827 53.7583C37.254 53.1788 38.1005 52.2629 38.5892 51.1544C39.0779 50.0459 39.1809 48.8079 38.8821 47.635C37.4286 41.8849 36.0269 30.1401 48.8882 30.3845C65.9024 30.7061 50.9127 36.8937 53.3526 43.5186C55.7925 50.1435 65.9672 40.4698 60.6852 30.5775C60.3737 30.0152 60.1546 29.4073 60.0363 28.7766L59.9455 28.1977C59.825 27.4781 59.8514 26.7419 60.023 26.0327C60.1947 25.3234 60.5081 24.6555 60.9448 24.0684C62.9953 21.3026 66.6032 15.8097 66.72 11.3074C66.8757 5.01691 60.7631 5.58292 58.7255 7.26809C56.9086 8.78603 52.2365 17.7779 52.2365 17.7779C51.9559 18.0432 51.6085 18.229 51.2307 18.316C50.8529 18.4029 50.4586 18.3878 50.0887 18.2721C49.7188 18.1565 49.387 17.9446 49.1279 17.6586C48.8688 17.3725 48.6919 17.0228 48.6156 16.6459C47.5385 13.5714 54.1443 1.62084 43.0481 1.82666C31.9518 2.03248 40.115 14.3818 39.3623 15.977C38.6096 17.5721 36.8575 17.5335 35.3391 15.2694C33.8207 13.0054 32.5099 4.06497 25.2293 4.06497C17.9486 4.06497 15.34 12.5809 21.4267 18.9357C21.4267 18.9357 23.9574 21.7143 21.9977 22.5118C20.038 23.3094 6.13856 35.0284 16.8065 53.591C17.2603 54.3788 17.91 55.0383 18.6937 55.5067C19.4775 55.9751 20.3692 56.2367 21.2839 56.2667Z" fill="white" stroke="#55565C" stroke-width="2.85" stroke-linecap="round" stroke-linejoin="round"/>
<path d="M43.3985 31.2464C43.3985 31.2464 61.5677 18.7427 77.2581 24.4543C77.2581 24.4543 84.1105 27.9018 78.1277 34.4753C72.1448 41.0487 58.9981 39.6208 57.3628 49.6547C55.7276 59.6885 42.6847 52.5619 39.8036 50.7353C36.9224 48.9086 35.5079 34.4753 43.3985 31.2464Z" fill="white" stroke="#55565C" stroke-width="2.85" stroke-linecap="round" stroke-linejoin="round"/>
<path d="M7.79974 78.7657C7.79974 78.7657 10.7977 112.585 55.0397 122.992C55.0397 122.992 18.286 100.313 7.79974 78.7657Z" fill="#D8D8D8"/>
</g>
<defs>
<clipPath id="clip0_408_285">
<rect width="150" height="133" fill="white"/>
</clipPath>
</defs>
</svg>
